<?xml version="1.0" encoding="UTF-8" standalone="no"?>
<!-- Created with Inkscape (http://www.inkscape.org/) -->

<svg
   xmlns:dc="http://purl.org/dc/elements/1.1/"
   xmlns:cc="http://creativecommons.org/ns#"
   xmlns:rdf="http://www.w3.org/1999/02/22-rdf-syntax-ns#"
   xmlns:svg="http://www.w3.org/2000/svg"
   xmlns="http://www.w3.org/2000/svg"
   xmlns:sodipodi="http://sodipodi.sourceforge.net/DTD/sodipodi-0.dtd"
   xmlns:inkscape="http://www.inkscape.org/namespaces/inkscape"
   width="1384"
   height="1920"
   id="svg2"
   version="1.1"
   inkscape:version="0.92.3 (2405546, 2018-03-11)"
   sodipodi:docname="Association_football_5-3-2_sweeper_formation.svg">
  <title
     id="title3030">5-3-2 sweeper Association football formation</title>
  <defs
     id="defs4" />
  <sodipodi:namedview
     id="base"
     pagecolor="#ffffff"
     bordercolor="#666666"
     borderopacity="1.0"
     inkscape:pageopacity="0.0"
     inkscape:zoom="0.34114601"
     inkscape:cx="665.80099"
     inkscape:cy="1077.9825"
     inkscape:document-units="px"
     inkscape:current-layer="layer2"
     showgrid="false"
     inkscape:showpageshadow="false"
     inkscape:window-width="1583"
     inkscape:window-height="1083"
     inkscape:window-x="74"
     inkscape:window-y="27"
     inkscape:window-maximized="0"
     inkscape:snap-global="false" />
  <metadata
     id="metadata7">
    <rdf:RDF>
      <cc:Work
         rdf:about="">
        <dc:format>image/svg+xml</dc:format>
        <dc:type
           rdf:resource="http://purl.org/dc/dcmitype/StillImage" />
        <dc:title>5-3-2 sweeper Association football formation</dc:title>
        <dc:source>http://commons.wikimedia.org/wiki/File:5-3-2_Sweeper.gif</dc:source>
        <dc:date>2012-09-19</dc:date>
        <dc:creator>
          <cc:Agent>
            <dc:title>Threner</dc:title>
          </cc:Agent>
        </dc:creator>
        <dc:subject>
          <rdf:Bag>
            <rdf:li>football</rdf:li>
            <rdf:li>soccer</rdf:li>
            <rdf:li>pitch</rdf:li>
            <rdf:li>field</rdf:li>
            <rdf:li>formation</rdf:li>
          </rdf:Bag>
        </dc:subject>
        <cc:license
           rdf:resource="http://creativecommons.org/licenses/by-sa/3.0/" />
        <dc:language>en</dc:language>
      </cc:Work>
      <cc:License
         rdf:about="http://creativecommons.org/licenses/by-sa/3.0/">
        <cc:permits
           rdf:resource="http://creativecommons.org/ns#Reproduction" />
        <cc:permits
           rdf:resource="http://creativecommons.org/ns#Distribution" />
        <cc:requires
           rdf:resource="http://creativecommons.org/ns#Notice" />
        <cc:requires
           rdf:resource="http://creativecommons.org/ns#Attribution" />
        <cc:permits
           rdf:resource="http://creativecommons.org/ns#DerivativeWorks" />
        <cc:requires
           rdf:resource="http://creativecommons.org/ns#ShareAlike" />
      </cc:License>
    </rdf:RDF>
  </metadata>
  <g
     inkscape:label="Field"
     inkscape:groupmode="layer"
     id="layer1"
     style="display:inline">
    <rect
       style="fill:#339933;fill-opacity:1;stroke:none;stroke-width:2;marker:none;visibility:visible;display:inline;overflow:visible;enable-background:accumulate"
       id="background"
       width="1312.2319"
       height="1855.9368"
       x="44.506611"
       y="34.496052" />
    <rect
       y="59.216797"
       x="69.308395"
       height="1808.5243"
       width="1264.4985"
       id="fieldBorder"
       style="fill:none;stroke:#ffffff;stroke-width:4;stroke-miterlimit:4;stroke-opacity:1;stroke-dasharray:none;marker:none;visibility:visible;display:inline;overflow:visible;enable-background:accumulate" />
    <path
       id="centreMarkers"
       style="fill:none;stroke:#ffffff;stroke-width:4;stroke-linecap:butt;stroke-linejoin:miter;stroke-miterlimit:4;stroke-opacity:1;stroke-dasharray:none"
       d="m 899.63163,964.10547 a 197.07311,197.07311 0 0 1 -394.14621,0 197.07311,197.07311 0 1 1 394.14621,0 z m -830.304688,-0.6241 1264.480458,0"
       inkscape:connector-curvature="0" />
    <path
       id="topMarkers"
       style="fill:none;stroke:#ffffff;stroke-width:4;stroke-linecap:butt;stroke-linejoin:miter;stroke-miterlimit:4;stroke-opacity:1;stroke-dasharray:none"
       d="m 514.89153,232.66364 0,-173.823214 0,173.983714 373.6365,0 0,-173.709846 m -557.50567,346.770866 0,-347.044734 0,347.365184 740.45184,0 0,-346.818395"
       inkscape:connector-curvature="0" />
    <path
       d="m 887.60503,1694.1483 0,173.8233 0,-173.9838 -373.6365,0 0,173.7099 m 557.50567,-346.7709 0,347.0448 0,-347.3652 -740.45184,0 0,346.8184"
       style="fill:none;stroke:#ffffff;stroke-width:4;stroke-linecap:butt;stroke-linejoin:miter;stroke-miterlimit:4;stroke-opacity:1;stroke-dasharray:none"
       id="bottomMarkers"
       inkscape:connector-curvature="0" />
  </g>
  <g
     inkscape:groupmode="layer"
     id="layer2"
     inkscape:label="Positions">
    <path
       style="fill:#808080;fill-opacity:1;stroke:#000000;stroke-width:6;stroke-linecap:butt;stroke-linejoin:miter;stroke-miterlimit:4;stroke-opacity:1;stroke-dasharray:none"
       d="m 765.12081,1743.6281 a 72,72 0 0 1 -144,0 72,72 0 1 1 144,0 z"
       id="goalKeeper"
       inkscape:connector-curvature="0" />
    <path
       style="fill:#ffff00;fill-opacity:1;stroke:#000000;stroke-width:6;stroke-linecap:butt;stroke-linejoin:miter;stroke-miterlimit:4;stroke-opacity:1;stroke-dasharray:none"
       d="m 404.87683,876.42735 a 72,72 0 0 1 -144,0 72,72 0 1 1 144,0 z"
       id="centreMidfieldLeft"
       inkscape:connector-curvature="0" />
    <path
       inkscape:connector-curvature="0"
       id="centreMidfieldMid"
       d="m 753.13998,913.83028 a 72.000001,72.000001 0 0 1 -144,0 72.000001,72.000001 0 1 1 144,0 z"
       style="fill:#ffff00;fill-opacity:1;stroke:#000000;stroke-width:6;stroke-linecap:butt;stroke-linejoin:miter;stroke-miterlimit:4;stroke-opacity:1;stroke-dasharray:none" />
    <path
       inkscape:connector-curvature="0"
       id="centreMidfieldRight"
       d="m 1154.0843,876.73285 a 72.000015,72.000015 0 0 1 -144,0 72.000015,72.000015 0 1 1 144,0 z"
       style="fill:#ffff00;fill-opacity:1;stroke:#000000;stroke-width:6;stroke-linecap:butt;stroke-linejoin:miter;stroke-miterlimit:4;stroke-opacity:1;stroke-dasharray:none" />
    <path
       style="fill:#ff0000;fill-opacity:1;stroke:#000000;stroke-width:6;stroke-linecap:butt;stroke-linejoin:miter;stroke-miterlimit:4;stroke-opacity:1;stroke-dasharray:none"
       d="m 581.50241,259.33379 a 72,72 0 0 1 -144,0 72,72 0 1 1 144,0 z"
       id="centreForwardLeft"
       inkscape:connector-curvature="0" />
    <path
       inkscape:connector-curvature="0"
       id="centreForwardRight"
       d="m 960.28379,255.48829 a 72,72 0 0 1 -144,0 72,72 0 1 1 144,0 z"
       style="fill:#ff0000;fill-opacity:1;stroke:#000000;stroke-width:6;stroke-linecap:butt;stroke-linejoin:miter;stroke-miterlimit:4;stroke-opacity:1;stroke-dasharray:none" />
    <path
       inkscape:connector-curvature="0"
       id="wingBackLeft"
       d="m 256.23281,1249.6772 a 72,72 0 0 1 -144,0 72,72 0 1 1 144,0 z"
       style="fill:#2009ff;fill-opacity:1;stroke:#000000;stroke-width:6;stroke-linecap:butt;stroke-linejoin:miter;stroke-miterlimit:4;stroke-opacity:1;stroke-dasharray:none" />
    <path
       inkscape:connector-curvature="0"
       id="wingBackRight"
       d="m 1268.9666,1250.0513 a 72,72 0 0 1 -144,0 72,72 0 1 1 144,0 z"
       style="fill:#2009ff;fill-opacity:1;stroke:#000000;stroke-width:6;stroke-linecap:butt;stroke-linejoin:miter;stroke-miterlimit:4;stroke-opacity:1;stroke-dasharray:none" />
    <path
       style="fill:#2009ff;fill-opacity:1;stroke:#000000;stroke-width:6;stroke-linecap:butt;stroke-linejoin:miter;stroke-miterlimit:4;stroke-opacity:1;stroke-dasharray:none"
       d="m 495.78336,1422.9242 a 72,72 0 0 1 -144,0 72,72 0 1 1 144,0 z"
       id="centreBackLeft"
       inkscape:connector-curvature="0" />
    <path
       inkscape:connector-curvature="0"
       id="sweeper-arrow"
       d="m 700.72491,1192.8494 -101.1621,108.5003 54.5122,0 0,147.2879 93.2998,0 0,-146.7637 53.4639,0 z"
       style="fill:#b7e0e4;fill-opacity:1;stroke:none" />
    <path
       inkscape:connector-curvature="0"
       id="sweeper"
       d="m 771.37726,1469.3906 a 72,72 0 0 1 -144,0 72,72 0 1 1 144,0 z"
       style="fill:#2009ff;fill-opacity:1;stroke:#000000;stroke-width:6;stroke-linecap:butt;stroke-linejoin:miter;stroke-miterlimit:4;stroke-opacity:1;stroke-dasharray:none" />
    <path
       style="fill:#2009ff;fill-opacity:1;stroke:#000000;stroke-width:6;stroke-linecap:butt;stroke-linejoin:miter;stroke-miterlimit:4;stroke-opacity:1;stroke-dasharray:none"
       d="m 1048.3253,1422.2982 a 72.00001,72.00001 0 0 1 -144.00006,0 72.00001,72.00001 0 1 1 144.00006,0 z"
       id="centreBackRight"
       inkscape:connector-curvature="0" />
  </g>
</svg>
